<svg xmlns="http://www.w3.org/2000/svg" viewBox="0 0 256 256" width="256" height="256">
  <defs>
    <linearGradient id="ebg" x1="0" y1="0" x2="1" y2="1">
      <stop offset="0%" stop-color="#001830"/>
      <stop offset="100%" stop-color="#002040"/>
    </linearGradient>
    <linearGradient id="blade" x1="0" y1="0" x2="1" y2="1">
      <stop offset="0%" stop-color="#c0d0e0"/>
      <stop offset="50%" stop-color="#e0e8f0"/>
      <stop offset="100%" stop-color="#a0b0c0"/>
    </linearGradient>
  </defs>
  <rect width="256" height="256" fill="url(#ebg)"/>
  <!-- Energy wisps -->
  <path d="M60,200 Q80,160 70,120 Q60,80 90,60" fill="none" stroke="#40a0c0" stroke-width="2" opacity="0.3"/>
  <path d="M180,210 Q200,170 190,130 Q180,90 200,50" fill="none" stroke="#40a0c0" stroke-width="2" opacity="0.3"/>
  <!-- Sword blade (diagonal) -->
  <polygon points="80,200 128,50 136,54 92,204" fill="url(#blade)"/>
  <!-- Blade edge highlight -->
  <line x1="82" y1="198" x2="129" y2="52" stroke="#f0f4ff" stroke-width="1" opacity="0.6"/>
  <!-- Guard (crossguard) -->
  <rect x="72" y="192" width="52" height="8" rx="2" fill="#60a080" transform="rotate(-10, 98, 196)"/>
  <!-- Guard jade orb -->
  <circle cx="98" cy="196" r="6" fill="#70c090" opacity="0.8"/>
  <circle cx="96" cy="194" r="2" fill="#a0e0b0" opacity="0.6"/>
  <!-- Handle -->
  <rect x="90" y="200" width="10" height="30" rx="2" fill="#604830" transform="rotate(-10, 95, 215)"/>
  <!-- Pommel -->
  <circle cx="92" cy="232" r="6" fill="#60a080" opacity="0.7"/>
  <!-- Energy glow around blade -->
  <polygon points="80,200 128,50 136,54 92,204" fill="none" stroke="#40a0e0" stroke-width="3" opacity="0.2"/>
  <!-- Sparkle -->
  <text x="130" y="70" font-size="14" fill="#a0d0ff" opacity="0.7">✦</text>
</svg>