<svg xmlns="http://www.w3.org/2000/svg" viewBox="0 0 256 256" width="256" height="256">
  <defs>
    <radialGradient id="fg" cx="50%" cy="50%" r="50%">
      <stop offset="0%" stop-color="#c060e0"/>
      <stop offset="50%" stop-color="#8030a0"/>
      <stop offset="100%" stop-color="#200830"/>
    </radialGradient>
  </defs>
  <rect width="256" height="256" fill="#0a0418"/>
  <circle cx="128" cy="128" r="120" fill="url(#fg)" opacity="0.8"/>
  <!-- Swirl arms -->
  <path d="M128,128 Q80,60 40,128 Q0,196 128,128" fill="none" stroke="#40c890" stroke-width="4" opacity="0.7"/>
  <path d="M128,128 Q176,196 216,128 Q256,60 128,128" fill="none" stroke="#e0e0e0" stroke-width="4" opacity="0.7"/>
  <!-- Inner glow -->
  <circle cx="128" cy="128" r="30" fill="#c040a0" opacity="0.4"/>
  <circle cx="128" cy="128" r="15" fill="#e060c0" opacity="0.5"/>
  <!-- Orbiting sparks -->
  <circle cx="70" cy="80" r="3" fill="#60e0a0" opacity="0.8"/>
  <circle cx="186" cy="176" r="3" fill="#e0e0f0" opacity="0.8"/>
  <circle cx="90" cy="190" r="2" fill="#a0c0ff" opacity="0.6"/>
  <circle cx="170" cy="70" r="2" fill="#ffa0c0" opacity="0.6"/>
  <!-- Yin-yang hint -->
  <path d="M128,88 A40,40 0 0 1 128,168 A20,20 0 0 0 128,128 A20,20 0 0 1 128,88" fill="#40c890" opacity="0.3"/>
  <path d="M128,88 A40,40 0 0 0 128,168 A20,20 0 0 1 128,128 A20,20 0 0 0 128,88" fill="#e0e0e0" opacity="0.3"/>
</svg>